<svg width="15" height="16" viewBox="0 0 15 16" fill="none" xmlns="http://www.w3.org/2000/svg">
<path fill-rule="evenodd" clip-rule="evenodd" d="M9.8409 4.4418L8.82809 5.46704C8.20872 6.094 7.93916 6.76082 9.31696 6.76082H15V1.00806C15 -0.386826 14.3414 -0.113952 13.7219 0.512839L13.2155 1.02546L12.7093 1.53808L12.447 1.80359C12.437 1.79589 12.4273 1.78802 12.4174 1.78049C10.6859 0.485035 8.60261 0.0220025 6.63398 0.320805C4.70265 0.613942 2.87944 1.6385 1.60422 3.32786L1.59066 3.34393L1.59165 3.34477L1.52831 3.42998L1.53095 3.43199L1.51491 3.45426C0.245745 5.20203 -0.207738 7.30123 0.0861725 9.2846C0.375591 11.2395 1.3879 13.085 3.05644 14.3756L3.07265 14.3899L3.07347 14.3889L3.15766 14.4528L3.15964 14.4501L3.16444 14.454C4.8945 15.7484 6.97554 16.2111 8.94104 15.9128C10.8722 15.6197 12.6954 14.5951 13.9704 12.9061L13.9843 12.8899C14.5826 12.1722 14.493 11.0991 13.784 10.4934C13.075 9.88748 12.0147 9.97838 11.4164 10.6961C11.3714 10.7502 11.3304 10.8061 11.2931 10.8637C10.5681 11.8116 9.53726 12.3873 8.44574 12.5527C7.35338 12.7184 6.2028 12.477 5.23813 11.7921L5.23929 11.7901C5.18603 11.7446 5.1308 11.7031 5.07391 11.6654C4.13752 10.9315 3.56875 9.88798 3.40502 8.78307C3.2413 7.6773 3.47978 6.51261 4.1567 5.5361L4.15851 5.53744C4.2035 5.48353 4.24451 5.42745 4.28173 5.36986C5.00677 4.42198 6.03761 3.84623 7.12913 3.6805C8.1087 3.53201 9.1354 3.7118 10.0331 4.24686L9.84075 4.44173L9.8409 4.4418Z" fill="black"/>
</svg>
