<svg width="16" height="16" viewBox="0 0 16 16" fill="none" xmlns="http://www.w3.org/2000/svg">
<path d="M15.4141 1.90235H11.3535V0.941179C11.3535 0.420563 10.8484 0 10.2222 0H5.77772C5.13118 0 4.64643 0.420598 4.64643 0.941179V1.90235H0.585791C0.262524 1.90235 0 2.16272 0 2.483C0 2.80344 0.262672 3.06366 0.585791 3.06366L1.5353 3.0638L2.42423 13.8373C2.42423 15.0187 3.41417 16 4.62623 16H11.3738C12.586 16 13.5758 15.0388 13.5758 13.8572L14.4647 3.0437H15.4142C15.7375 3.0437 16 2.78333 16 2.46305C16.0001 2.14247 15.7375 1.9022 15.4142 1.9022L15.4141 1.90235ZM5.79789 1.16145H10.202V1.92244L5.79789 1.9223V1.16145ZM6.18177 12.3354C5.8585 12.3354 5.59597 12.0751 5.59597 11.7747L5.35359 6.16773C5.33344 6.02748 5.39403 5.86741 5.49507 5.74713C5.59611 5.64697 5.73746 5.56693 5.89908 5.56693C6.06072 5.54696 6.20206 5.60702 6.3234 5.70718C6.44459 5.82731 6.50519 5.96755 6.50519 6.12778L6.76786 11.7348C6.76758 12.0751 6.50489 12.3354 6.18177 12.3354ZM10.4444 11.7947C10.404 12.1152 10.1616 12.3354 9.83833 12.3354C9.65654 12.3354 9.51506 12.2754 9.41401 12.1553C9.29282 12.0351 9.25237 11.8749 9.27253 11.7147L9.55535 6.10768C9.59579 5.78725 9.85833 5.56697 10.1615 5.56697H10.1816C10.4846 5.60706 10.7068 5.86729 10.7068 6.16776L10.4444 11.7947Z" fill="black"/>
</svg>
