<svg width="16" height="16" viewBox="0 0 16 16" fill="none" xmlns="http://www.w3.org/2000/svg">
<path d="M0.867699 0H4.94209C5.42131 0 5.80979 0.471766 5.80979 0.854219V15.1458C5.80979 15.6175 5.42128 16 4.94209 16H0.867699C0.388488 16 0 15.5282 0 15.1458V0.854219C0 0.382453 0.388517 0 0.867699 0Z" fill="black"/>
<path d="M11.0579 0H15.1323C15.6115 0 16 0.471766 16 0.854219V15.1458C16 15.6175 15.6115 16 15.1323 16H11.0579C10.5787 16 10.1902 15.5282 10.1902 15.1458V0.854219C10.1902 0.382453 10.5787 0 11.0579 0Z" fill="black"/>
</svg>
